# xmcd
#
# Track frame offsets:
# 150
# 18243
# 31843
# 50278
# 68584
# 83212
# 100696
# 121377
# 163632
# 185292
# 204883
# 220343
# 235814
# 253016
# 267372
# 287346
# 310298
# 325922
# 338784
#
# Disc length: 4744 seconds
#
#
# Revision: 0
# Processed by: cddbd v1.5.2PL0 Copyright (c) Steve Scherf et al.
# Submitted via: FreeRIP 2.944 
#
DISCID=fd128613
DTITLE=Fazenda Congonhal - Folia de Reis Volume III
DYEAR=2012
DGENRE=Folklore
TTITLE0=Paz de Cristo
TTITLE1=Santos Reis É Festa
TTITLE2=Morada no Céu
TTITLE3=Oração da Noite
TTITLE4=A Mulinha de Jesus
TTITLE5=Santos Reis Em Vossa Casa
TTITLE6=Salve o Dia de Natal
TTITLE7=Uma Senhora de Fé
TTITLE8=Santa Estrela de Belém
TTITLE9=25 de Dezembro
TTITLE10=Salve Maria Virgem Santa
TTITLE11=Hino de Reis
TTITLE12=Encontro de Bandeiras
TTITLE13=As Crianças de Santos Reis
TTITLE14=Santa Manjedoura de Jesus
TTITLE15=Cruzeiro de Flor
TTITLE16=Nasceu O Salvador
TTITLE17=Presépio de Jesus
TTITLE18=Despedida
EXTD=
EXTT0=
EXTT1=
EXTT2=
EXTT3=
EXTT4=
EXTT5=
EXTT6=
EXTT7=
EXTT8=
EXTT9=
EXTT10=
EXTT11=
EXTT12=
EXTT13=
EXTT14=
EXTT15=
EXTT16=
EXTT17=
EXTT18=
PLAYORDER=
